<?xml version="1.0" encoding="UTF-8" standalone="no"?><!DOCTYPE svg PUBLIC "-//W3C//DTD SVG 1.1//EN" "http://www.w3.org/Graphics/SVG/1.1/DTD/svg11.dtd"><svg width="100%" height="100%" viewBox="0 0 6034 1903" version="1.1" xmlns="http://www.w3.org/2000/svg" xmlns:xlink="http://www.w3.org/1999/xlink" xml:space="preserve" xmlns:serif="http://www.serif.com/" style="fill-rule:evenodd;clip-rule:evenodd;stroke-linejoin:round;stroke-miterlimit:2;"><g><rect x="1.649" y="167.902" width="6000" height="1611.558" style="fill:#4fc983;"/><path d="M6033.146,1890.121l-331.488,-35.246l-299.992,11.65l-299.992,24.246l-299.992,-45.438l-300.004,36.762l-299.992,-34.808l-299.996,-7.742l-299.975,62.279l-299.979,-85.521l-299.983,36.358l-300.004,50.25l-300.004,-33.517l-300,-29.275l-300.008,-20.817l-300.004,82.012l-299.996,-57.525l-300.008,-11.258l-300.017,7.858l-300.033,48.579l-301.679,-4.827l0.675,-417.956l300.962,56.004l299.996,-40.746l299.992,-19.954l299.992,59.596l300,-49.783l299.996,14.496l299.992,-12.079l299.975,-3.438l299.979,37.225l299.987,-71.654l300,87.033l300.008,-54.396l299.996,-25.796l300.008,40.588l300.008,45.029l299.992,-71.546l300.012,31.408l300.017,0.892l300.029,20.321l326.217,-38.454l5.312,419.188Z" style="fill:#4fc983;fill-rule:nonzero;"/><path d="M6033.884,454.267l-331.487,-35.246l-299.992,11.65l-299.992,24.246l-299.992,-45.437l-300.004,36.762l-299.992,-34.808l-299.996,-7.742l-299.975,62.279l-299.979,-85.521l-299.987,36.358l-300,50.25l-300.004,-33.517l-300,-29.275l-300.008,-20.817l-300.004,82.012l-299.996,-57.525l-300.008,-11.258l-300.017,7.858l-300.033,48.583l-299.679,26.817l0.675,-447.604l298.963,54.004l299.996,-40.746l299.992,-19.954l299.992,59.596l300,-49.783l299.992,14.496l299.996,-12.079l299.975,-3.438l299.979,37.225l299.987,-71.654l300,87.033l300.008,-54.396l299.996,-25.796l300.008,40.587l300.008,45.029l299.992,-71.546l300.012,31.408l300.017,0.892l300.029,20.321l326.217,-38.45l5.312,419.183Z" style="fill:#4fc983;fill-rule:nonzero;"/></g></svg>