<?xml version="1.0" encoding="UTF-8" standalone="no"?><!DOCTYPE svg PUBLIC "-//W3C//DTD SVG 1.1//EN" "http://www.w3.org/Graphics/SVG/1.1/DTD/svg11.dtd"><svg width="100%" height="100%" viewBox="0 0 6005 3872" version="1.1" xmlns="http://www.w3.org/2000/svg" xmlns:xlink="http://www.w3.org/1999/xlink" xml:space="preserve" xmlns:serif="http://www.serif.com/" style="fill-rule:evenodd;clip-rule:evenodd;stroke-linejoin:round;stroke-miterlimit:2;"><g><g><rect x="3.561" y="0" width="6000" height="3750" style="fill:#1f1f1f;"/><path d="M6004.203,3857.981l-323.372,-34.246l-297.172,11.65l-297.172,24.246l-297.172,-45.438l-297.185,36.763l-297.172,-34.808l-297.176,-7.742l-297.156,62.279l-297.16,-85.521l-297.168,36.358l-297.181,50.25l-297.185,-33.517l-297.181,-29.275l-297.189,-20.817l-297.185,82.012l-297.176,-57.525l-297.189,-11.258l-297.197,7.858l-297.214,48.583l-331.601,-10.183l1.726,-459.604l329.833,103.004l297.176,-40.746l297.172,-19.954l297.172,59.596l297.181,-49.783l297.172,14.496l297.176,-12.079l297.156,-3.438l297.16,37.225l297.168,-71.654l297.181,87.033l297.189,-54.396l297.176,-25.796l297.189,40.587l297.189,45.029l297.172,-71.546l297.193,31.408l297.197,0.892l297.209,20.321l323.151,-38.45l0.263,418.183Z" style="fill:#1f1f1f;fill-rule:nonzero;"/></g></g></svg>