<?xml version="1.0" encoding="UTF-8" standalone="no"?><!DOCTYPE svg PUBLIC "-//W3C//DTD SVG 1.1//EN" "http://www.w3.org/Graphics/SVG/1.1/DTD/svg11.dtd"><svg width="100%" height="100%" viewBox="0 0 6005 5324" version="1.1" xmlns="http://www.w3.org/2000/svg" xmlns:xlink="http://www.w3.org/1999/xlink" xml:space="preserve" xmlns:serif="http://www.serif.com/" style="fill-rule:evenodd;clip-rule:evenodd;stroke-linejoin:round;stroke-miterlimit:2;"><rect x="1.83" y="292.385" width="6000" height="5031.554" style="fill:#4fc983;"/><path d="M6004.471,454.267l-288.487,-35.246l-299.992,11.65l-299.992,24.246l-299.992,-45.438l-300.004,36.762l-299.992,-34.808l-299.996,-7.742l-299.975,62.279l-299.979,-85.521l-299.987,36.358l-300,50.25l-300.004,-33.517l-300,-29.275l-300.008,-20.817l-300.004,82.012l-299.996,-57.525l-300.008,-11.258l-300.017,7.858l-300.033,48.583l-315.679,2.817l-0.325,-426.604l315.962,57.004l299.996,-40.746l299.992,-19.954l299.992,59.596l300,-49.783l299.992,14.496l299.996,-12.079l299.975,-3.438l299.979,37.225l299.987,-71.654l300,87.033l300.008,-54.396l299.996,-25.796l300.008,40.587l300.008,45.029l299.992,-71.546l300.012,31.408l300.017,0.892l300.029,20.321l288.217,-37.45l0.313,418.183Z" style="fill:#4fc983;fill-rule:nonzero;"/></svg>