<?xml version="1.0" encoding="UTF-8" standalone="no"?>
<!DOCTYPE svg PUBLIC "-//W3C//DTD SVG 1.1//EN" "http://www.w3.org/Graphics/SVG/1.1/DTD/svg11.dtd">
<svg width="100%" height="100%" viewBox="0 0 2730 547" version="1.1" xmlns="http://www.w3.org/2000/svg" xmlns:xlink="http://www.w3.org/1999/xlink" xml:space="preserve" xmlns:serif="http://www.serif.com/" style="fill-rule:evenodd;clip-rule:evenodd;stroke-linejoin:round;stroke-miterlimit:2;">
    <g transform="matrix(1,0,0,1,-2837.747083,-1207.92125)">
        <g transform="matrix(4.166667,0,0,4.166667,0,0)">
            <g transform="matrix(1,0,0,1,1329.6713,298.8851)">
                <path d="M0,113.169L-64.648,122.153L-132.218,112.112L-199.791,118.715L-267.367,112.686L-334.942,113.846L-412.799,120.018L-490.658,114.546L-568.521,115.709L-644.179,113.591L-648.612,55.857L-645.989,-4.181L-564.96,1.609L-483.536,-2.009L-411.256,-2.882L-338.975,1.578L-266.691,-1.138L-194.406,-8.559L-128.633,-4.895L-62.857,-8.984L2.494,-4.25L6.588,55.948L0,113.169Z" style="fill-rule:nonzero;"/>
            </g>
        </g>
    </g>
</svg>
