<?xml version="1.0" encoding="UTF-8" standalone="no"?>
<!DOCTYPE svg PUBLIC "-//W3C//DTD SVG 1.1//EN" "http://www.w3.org/Graphics/SVG/1.1/DTD/svg11.dtd">
<svg width="100%" height="100%" viewBox="0 0 2435 292" version="1.1" xmlns="http://www.w3.org/2000/svg" xmlns:xlink="http://www.w3.org/1999/xlink" xml:space="preserve" xmlns:serif="http://www.serif.com/" style="fill-rule:evenodd;clip-rule:evenodd;stroke-linejoin:round;stroke-miterlimit:2;">
    <g transform="matrix(1,0,0,1,-3093.193337,-7014.167185)">
        <g transform="matrix(4.166667,0,0,4.166667,0,0)">
            <g transform="matrix(0.987559,0,0,0.930188,1319.583085,1687.129249)">
                <path d="M6.562,67.138L-78.82,71.147L-159.401,62.715L-240.017,66.576L-307.204,65.141L-374.346,62.042L-435.677,62.634L-497.034,65.461L-583.89,65.105L-584.488,6.016L-497.45,2.885L-425.475,-0.038L-350.028,0.552L-289.961,6.945L-229.676,-1.544L-169.415,-1.494L-110.203,4.453L-51.227,-4.009L7.184,1.111L6.562,67.138Z" style="fill:rgb(79,201,131);fill-rule:nonzero;"/>
            </g>
        </g>
    </g>
</svg>
