<?xml version="1.0" encoding="UTF-8" standalone="no"?>
<!DOCTYPE svg PUBLIC "-//W3C//DTD SVG 1.1//EN" "http://www.w3.org/Graphics/SVG/1.1/DTD/svg11.dtd">
<svg width="100%" height="100%" viewBox="0 0 2454 745" version="1.1" xmlns="http://www.w3.org/2000/svg" xmlns:xlink="http://www.w3.org/1999/xlink" xml:space="preserve" xmlns:serif="http://www.serif.com/" style="fill-rule:evenodd;clip-rule:evenodd;stroke-linejoin:round;stroke-miterlimit:2;">
    <g transform="matrix(1,0,0,1,-1776.085833,-8535.212917)">
        <g transform="matrix(4.166667,0,0,4.166667,0,0)">
            <g transform="matrix(1.010294,0,0,1.016393,669.195776,2142.442032)">
                <path d="M0,-9.264L-10.765,-92.475L-85.332,-89.089L-161.697,-73.569L-240.46,-64.865L-228.669,28.541L-142.903,25.331L-143.879,76.298L-74.956,80.146L-4.893,82.47L65.167,75.847L135.23,83.211L205.295,75.183L275.363,80.489L342.112,75.36L342.432,-10.691L277.117,-13.653L208.799,-14.439L140.478,-7.337L72.264,-8.801L0,-9.264Z" style="fill:rgb(246,246,246);fill-rule:nonzero;"/>
            </g>
        </g>
    </g>
</svg>
