<?xml version="1.0" encoding="UTF-8" standalone="no"?>
<!DOCTYPE svg PUBLIC "-//W3C//DTD SVG 1.1//EN" "http://www.w3.org/Graphics/SVG/1.1/DTD/svg11.dtd">
<svg width="100%" height="100%" viewBox="0 0 3239 735" version="1.1" xmlns="http://www.w3.org/2000/svg" xmlns:xlink="http://www.w3.org/1999/xlink" xml:space="preserve" xmlns:serif="http://www.serif.com/" style="fill-rule:evenodd;clip-rule:evenodd;stroke-linejoin:round;stroke-miterlimit:2;">
    <g transform="matrix(1,0,0,1,-1380.84375,-13083.207917)">
        <g transform="matrix(4.166667,0,0,4.166667,0,0)">
            <g transform="matrix(1,0,0,1,331.4025,3307.3249)">
                <path d="M0,-158.42L0.485,-69.173L67.458,-69.987L134.969,-72.9L206.708,-72.157L209.829,4.159L277.884,-0.755L345.023,3.872L412.169,8.935L479.22,2.759L545.108,2.34L610.934,1.526L676.916,4.783L777.195,-0.767L776.387,-96.472L697.755,-97.591L640.944,-100.942L584.005,-104.625L518.643,-98.159L507.419,-164.354L445.392,-164.069L379.742,-167.355L316.017,-160.778L252.423,-161.783L188.938,-165.876L125.795,-166.474L63.299,-160.859L0,-158.42Z" style="fill:rgb(31,31,31);fill-rule:nonzero;"/>
            </g>
        </g>
    </g>
</svg>
