<?xml version="1.0" encoding="UTF-8" standalone="no"?>
<!DOCTYPE svg PUBLIC "-//W3C//DTD SVG 1.1//EN" "http://www.w3.org/Graphics/SVG/1.1/DTD/svg11.dtd">
<svg width="100%" height="100%" viewBox="0 0 6004 3378" version="1.1" xmlns="http://www.w3.org/2000/svg" xmlns:xlink="http://www.w3.org/1999/xlink" xml:space="preserve" xmlns:serif="http://www.serif.com/" style="fill-rule:evenodd;clip-rule:evenodd;stroke-linejoin:round;stroke-miterlimit:2;">
    <g transform="matrix(1,0,0,1,1.558401,-494.004167)">
        <g transform="matrix(4.166667,0,0,4.166667,0,0)">
            <g transform="matrix(1,0,0,0.8568,0,-3085.613103)">
                <rect x="0" y="3739.699" width="1440" height="900" style="fill:rgb(79,201,131);"/>
            </g>
        </g>
        <g transform="matrix(4.166667,0,0,4.166667,0,0)">
            <g transform="matrix(0.994229,0,0,1,1446.1539,820.2045)">
                <path d="M-5.793,105.954L-79.557,97.495L-151.555,100.291L-223.553,106.11L-295.551,95.205L-367.552,104.028L-439.55,95.674L-511.549,93.816L-583.543,108.763L-655.538,88.238L-727.535,96.964L-799.535,109.024L-871.536,100.98L-943.536,93.954L-1015.538,88.958L-1087.539,108.641L-1159.538,94.835L-1231.54,92.133L-1303.544,94.019L-1375.552,105.679L-1454.925,104.435L-1454.749,4.93L-1375.562,17.651L-1303.563,7.872L-1231.565,3.083L-1159.567,17.386L-1087.567,5.438L-1015.569,8.917L-943.57,6.018L-871.576,5.193L-799.581,14.127L-727.584,-3.07L-655.584,17.818L-583.582,4.763L-511.583,-1.428L-439.581,8.313L-367.579,19.12L-295.581,1.949L-223.578,9.487L-151.574,9.701L-79.567,14.578L-6.103,6.07L-5.793,105.954Z" style="fill:rgb(79,201,131);fill-rule:nonzero;"/>
            </g>
        </g>
    </g>
</svg>
