<?xml version="1.0" encoding="UTF-8" standalone="no"?>
<!DOCTYPE svg PUBLIC "-//W3C//DTD SVG 1.1//EN" "http://www.w3.org/Graphics/SVG/1.1/DTD/svg11.dtd">
<svg width="100%" height="100%" viewBox="0 0 6000 5392" version="1.1" xmlns="http://www.w3.org/2000/svg" xmlns:xlink="http://www.w3.org/1999/xlink" xml:space="preserve" xmlns:serif="http://www.serif.com/" style="fill-rule:evenodd;clip-rule:evenodd;stroke-linejoin:round;stroke-miterlimit:2;">
    <g transform="matrix(1,0,0,1,0,-7881.315833)">
        <g transform="matrix(4.166667,0,0,4.166667,0,0)">
            <g transform="matrix(0.231065,0,0,0.24,39.974326,-119.04)">
                <rect x="-173" y="10660" width="6232" height="3109" style="fill:rgb(31,31,31);"/>
            </g>
            <g transform="matrix(1,0,0,1,0,31.92)">
                <g transform="matrix(1,0,0,1,0,87.074)">
                    <rect x="0" y="1797.54" width="1440" height="957.546" style="fill:rgb(31,31,31);"/>
                </g>
                <g transform="matrix(1,0,0,1,650.5543,2687.4488)">
                    <path d="M0,-810.656L-71.996,-819.591L-143.989,-818.765L-215.988,-815.867L-287.987,-819.345L-359.987,-807.397L-431.985,-821.7L-503.983,-816.911L-575.981,-807.133L-650.554,-819.675L-650.554,17.197L789.445,17.197L789.445,-818.389L720.014,-810.205L648.007,-815.082L576.002,-815.296L504,-822.833L432.001,-805.663L360,-816.47L287.997,-826.211L215.998,-820.02L143.997,-806.965L71.997,-827.853L0,-810.656Z" style="fill:rgb(31,31,31);fill-rule:nonzero;"/>
                </g>
            </g>
        </g>
    </g>
</svg>
