<?xml version="1.0" encoding="UTF-8" standalone="no"?><!DOCTYPE svg PUBLIC "-//W3C//DTD SVG 1.1//EN" "http://www.w3.org/Graphics/SVG/1.1/DTD/svg11.dtd"><svg width="100%" height="100%" viewBox="0 0 6012 4662" version="1.1" xmlns="http://www.w3.org/2000/svg" xmlns:xlink="http://www.w3.org/1999/xlink" xml:space="preserve" xmlns:serif="http://www.serif.com/" style="fill-rule:evenodd;clip-rule:evenodd;stroke-linejoin:round;stroke-miterlimit:2;"><rect x="3.974" y="149.12" width="6000" height="4512.325" style="fill:#f6f6f6;"/><path d="M6011.471,454.267l-328.59,-35.246l-297.37,11.65l-297.37,24.246l-297.37,-45.438l-297.382,36.762l-297.37,-34.808l-297.374,-7.742l-297.353,62.279l-297.358,-85.521l-297.362,36.358l-297.382,50.25l-297.382,-33.517l-297.378,-29.275l-297.386,-20.817l-297.382,82.012l-297.374,-57.525l-297.386,-11.258l-297.395,7.858l-297.411,48.579l-329.85,-5.179l-0.244,-417.604l330.053,56.004l297.374,-40.746l297.37,-19.954l297.37,59.596l297.378,-49.783l297.374,14.496l297.37,-12.079l297.353,-3.438l297.358,37.225l297.366,-71.654l297.378,87.033l297.386,-54.396l297.374,-25.796l297.386,40.587l297.386,45.029l297.37,-71.546l297.391,31.408l297.395,0.892l297.407,20.321l323.366,-38.454l5.266,419.187Z" style="fill:#f6f6f6;fill-rule:nonzero;"/></svg>