<?xml version="1.0" encoding="UTF-8"?>
<svg id="Layer_1" data-name="Layer 1" xmlns="http://www.w3.org/2000/svg" viewBox="0 0 2012 1596.53">
  <path d="M1577.76,1262.64c-20,6.16-39.92,12.11-59.54,18-89.48,26.76-172.94,51.73-224.5,85.35-29.17,19.05-38.28,45.49-33.55,69.8,4.1,21.15,17.65,41.47,37.33,55.68,19.82,14.36,45.85,22,74.74,17.58,59.74-9.18,131.19-67.81,193.26-215.92,4.3-10.29,8.37-20.45,12.26-30.5M281.92,869.3c35.19,10.26,75.93,15.06,122.47,13.14-61.26-217.07,61.95-370.05,256.6-448.67,98.38-39.72,215.68-59.54,335.52-57.89,119.71,1.61,242.25,24.55,351.39,70.29,250.02,104.82,432,325.22,360.69,677.9,92.78-41.19,169.55-96.1,198.02-180.51,47.07-139.67,2.84-278.5-84.05-400.03-119.22-166.71-316.53-300.46-475.46-363.85-101.53-40.49-208.95-68.09-316.54-82.34-108.53-14.4-217.03-15.27-319.75-2.18-95.47,12.15-187.69,35.86-271.29,72.39-76.73,33.55-146.07,77.93-203.73,134.17-68.22,66.58-113.4,141.91-135.04,216.12-15.66,53.69-18.88,106.75-9.42,155.12,9.1,46.75,30.29,89.2,63.74,123.49,31.24,32.01,73.43,57.3,126.85,72.85ZM491.22,872.07c76.59-14.54,165.06-44.41,266.24-93.13,79.93-38.49,152.53-66.09,217.95-84.4,72.01-20.21,136-29.28,192-29.49,150.28-.49,240.36,56.42,280.49,137.25,32.26,64.93,30.57,143.73.95,219.52-28.31,72.25-82.38,142.47-156.66,194.58-142.33,99.92-358.8,134.87-607.82-9.32-59.92-34.7-115.78-77.19-161.56-124.19-35.45-36.43-65.04-75.72-86.08-116.49-68.12,6.03-127.59.31-178.72-14.6-68.43-19.96-123.25-53.09-164.57-95.44-45.57-46.68-74.36-104.16-86.65-167.23-11.97-61.47-8.05-128.18,11.49-195.19,25.63-88.04,78.41-176.62,157.6-253.88,65.28-63.71,143.27-113.72,229.29-151.33,91.09-39.82,191.33-65.6,294.86-78.8,110.15-14,226.07-13.16,341.65,2.18,114.49,15.2,228.84,44.58,337.09,87.73,171.43,68.4,384.62,213.08,513.85,393.83,101.74,142.33,152.73,307.26,95.47,477.15-45.57,135.22-169.76,206.6-306.8,257.24-10.19,31.73-22.21,64.41-36.28,98.07-76.11,181.48-174.17,254.93-259.98,268.13-52.85,8.12-101-6.27-138.02-33.06-37.19-26.9-63.11-66.75-71.37-109.23-10.97-56.67,8.15-116.83,71.3-158.02,62.27-40.67,151.26-67.28,246.66-95.82,38.6-11.56,78.31-23.43,117.29-36.6,89.28-335.55-70.74-541.49-296.01-635.91-99.19-41.57-210.59-62.41-319.37-63.88-108.6-1.47-214.37,16.25-302.49,51.83-156.52,63.18-255.11,185.76-201.8,358.5ZM794.87,856.37c-99.43,47.91-188.32,78.91-267.16,95.96,15.38,24.2,34.61,47.87,56.74,70.61,40.17,41.25,89.63,78.8,143.04,109.72,214.16,124.01,396.83,96.45,515.21,13.38,60.07-42.2,103.57-98.27,125.98-155.53,21.05-53.76,23.15-107.8,2.1-150.14-26.19-52.71-90.89-89.83-203.37-89.45-47.99.18-104.13,8.34-168.78,26.44-60.86,17.05-128.71,42.87-203.75,79.01Z"/>
</svg>