<?xml version="1.0" encoding="UTF-8" standalone="no"?><!DOCTYPE svg PUBLIC "-//W3C//DTD SVG 1.1//EN" "http://www.w3.org/Graphics/SVG/1.1/DTD/svg11.dtd"><svg width="100%" height="100%" viewBox="0 0 6003 4019" version="1.1" xmlns="http://www.w3.org/2000/svg" xmlns:xlink="http://www.w3.org/1999/xlink" xml:space="preserve" xmlns:serif="http://www.serif.com/" style="fill-rule:evenodd;clip-rule:evenodd;stroke-linejoin:round;stroke-miterlimit:2;"><rect x="0.739" y="0" width="6000" height="3750" style="fill:#f6f6f6;"/><path d="M3900.642,3628.772l-300,-49.55l-300.004,49.417l-300.004,11.942l-299.983,-80.4l-299.979,53.017l-299.975,-20.221l-299.996,-44.421l-299.996,-5.954l-300,34.463l-299.992,-32.758l-299.992,19.75l-299.992,80.171l-299.992,-56.033l0,49.867l-0.738,301.387l300.771,79.188l300.033,-116.117l300.012,86.537l300.013,-21.892l299.992,19.279l300.008,-44.783l300.008,35.542l299.996,14.988l300.008,-66.162l300.004,39.771l299.983,-45.217l299.979,26.508l299.971,47.517l299.996,17.033l300,-100.737l300,55.904l299.992,37.267l299.992,0.579l299.992,-78.071l299.987,51.588l0,-209.867l1.546,-157.546l-301.575,-39.4l-300.033,45.15l-300.017,-57.133l-300.008,76.292l-299.992,-82.137l-300.008,-16.037l-300.008,91.283Z" style="fill:#f6f6f6;fill-rule:nonzero;"/></svg>