<?xml version="1.0" encoding="UTF-8" standalone="no"?><!DOCTYPE svg PUBLIC "-//W3C//DTD SVG 1.1//EN" "http://www.w3.org/Graphics/SVG/1.1/DTD/svg11.dtd"><svg width="100%" height="100%" viewBox="0 0 2050 628" version="1.1" xmlns="http://www.w3.org/2000/svg" xmlns:xlink="http://www.w3.org/1999/xlink" xml:space="preserve" xmlns:serif="http://www.serif.com/" style="fill-rule:evenodd;clip-rule:evenodd;stroke-linejoin:round;stroke-miterlimit:2;"><path d="M2043.257,615.311l-433.294,-0.608l-283.038,-5.583l-283.038,6.638l-283.241,-19.054l-283.245,2.962l-240.04,28.267l-232.282,-20.004l-5.078,-338.8l289.469,9.767l292.141,-19.504l292.128,20.908l292.145,-8.829l292.154,6.762l292.162,-12.317l298.918,-10.046l-9.969,184.183l4.11,175.258Z" style="fill:#f6f6f6;fill-rule:nonzero;"/><path d="M1658.379,308.135l-270.282,1.658l-176.59,-3.362l-176.506,7.113l-176.81,-14.908l-176.66,3.964l-149.535,25.437l-145.03,-15.979l-5.509,-290.386l180.63,6.916l182.095,-18.188l182.366,16.453l182.171,-9.038l182.284,4.327l182.158,-12.027l186.388,-10.115l-4.945,157.928l3.775,150.207Z" style="fill:#4fc983;fill-rule:nonzero;"/></svg>