<?xml version="1.0" encoding="UTF-8" standalone="no"?><!DOCTYPE svg PUBLIC "-//W3C//DTD SVG 1.1//EN" "http://www.w3.org/Graphics/SVG/1.1/DTD/svg11.dtd"><svg width="100%" height="100%" viewBox="0 0 2252 611" version="1.1" xmlns="http://www.w3.org/2000/svg" xmlns:xlink="http://www.w3.org/1999/xlink" xml:space="preserve" xmlns:serif="http://www.serif.com/" style="fill-rule:evenodd;clip-rule:evenodd;stroke-linejoin:round;stroke-miterlimit:2;"><path d="M2251.685,597.395l-504.255,-0.678l-299.788,-5.663l-299.784,6.729l-300.009,-19.325l-300.009,3.004l-254.243,28.671l-288.215,-20.288l-5.381,-343.679l348.787,9.904l309.43,-19.783l309.421,21.208l309.434,-8.958l309.443,6.863l309.456,-12.496l347.858,-10.187l7.856,364.678Z" style="fill:#f6f6f6;fill-rule:nonzero;"/><path d="M2174.453,297.14l-465.89,2.958l-281.912,-2.513l-281.827,7.963l-282.207,-14.058l-282.059,4.814l-266.982,12.095l-218.964,-9.032l1.976,-259.121l294.595,-17.391l290.804,-19.065l291.071,15.576l290.882,-9.914l290.998,3.45l290.875,-12.904l319.494,20.238l9.149,276.902Z" style="fill:#4fc983;fill-rule:nonzero;"/></svg>