<?xml version="1.0" encoding="UTF-8" standalone="no"?>
<!DOCTYPE svg PUBLIC "-//W3C//DTD SVG 1.1//EN" "http://www.w3.org/Graphics/SVG/1.1/DTD/svg11.dtd">
<svg width="100%" height="100%" viewBox="0 0 1767 245" version="1.1" xmlns="http://www.w3.org/2000/svg" xmlns:xlink="http://www.w3.org/1999/xlink" xml:space="preserve" xmlns:serif="http://www.serif.com/" style="fill-rule:evenodd;clip-rule:evenodd;stroke-linejoin:round;stroke-miterlimit:2;">
    <g transform="matrix(1,0,0,1,-1042.549333,-1033.251733)">
        <g transform="matrix(2.666667,0,0,2.666667,0,0)">
            <g transform="matrix(1,0,0,1,1033.687,391.1854)">
                <path d="M19.875,81.262L-47.279,84.894L-139.919,78.848L-208.936,83.819L-277.952,87.305L-346.966,87.626L-415.983,86.221L-485.002,78.887L-554.024,87.978L-641.999,86.341L-642.731,7.229L-554.03,3.702L-485.015,6.086L-415.998,3.633L-346.982,5.634L-277.968,4.891L-208.951,-3.716L-139.932,4.613L-45.41,2.96L17.709,4.556L19.875,81.262Z" style="fill:rgb(79,201,131);fill-rule:nonzero;"/>
            </g>
        </g>
    </g>
</svg>
