<?xml version="1.0" encoding="UTF-8" standalone="no"?><!DOCTYPE svg PUBLIC "-//W3C//DTD SVG 1.1//EN" "http://www.w3.org/Graphics/SVG/1.1/DTD/svg11.dtd"><svg width="100%" height="100%" viewBox="0 0 6001 4020" version="1.1" xmlns="http://www.w3.org/2000/svg" xmlns:xlink="http://www.w3.org/1999/xlink" xml:space="preserve" xmlns:serif="http://www.serif.com/" style="fill-rule:evenodd;clip-rule:evenodd;stroke-linejoin:round;stroke-miterlimit:2;"><g><rect x="0" y="0" width="6000" height="3750" style="fill:#4fc983;"/><path d="M4499.917,3652.799l-300.008,-86.537l-300.008,21.892l-300,-19.283l-300.004,44.788l-300,-35.546l-299.988,-14.983l-299.975,66.162l-299.975,-39.775l-299.996,45.217l-299.996,-26.504l-300,-47.517l-299.996,-17.037l-299.992,100.746l-299.992,-55.908l-299.988,-19.654l0,416.283l300.029,-56.208l300.033,67.692l300.017,-27.546l300.008,-0.442l299.996,40.621l300.004,-20.983l300.008,-44.079l299.996,46.175l300.008,-15.421l300.004,-0.55l299.983,-42.65l299.979,54.013l299.975,-34.196l299.996,64.183l299.996,3.692l300,-7.6l299.992,-0.062l299.992,-94.287l299.992,51.871l299.992,-0.646l0,-388.008l-300.029,65.875l-300.033,-58.533l-300.017,33.983l-300.012,-85.35l-299.992,116.117Z" style="fill:#4fc983;fill-rule:nonzero;"/></g></svg>