<?xml version="1.0" encoding="UTF-8" standalone="no"?><!DOCTYPE svg PUBLIC "-//W3C//DTD SVG 1.1//EN" "http://www.w3.org/Graphics/SVG/1.1/DTD/svg11.dtd"><svg width="100%" height="100%" viewBox="0 0 4509 551" version="1.1" xmlns="http://www.w3.org/2000/svg" xmlns:xlink="http://www.w3.org/1999/xlink" xml:space="preserve" xmlns:serif="http://www.serif.com/" style="fill-rule:evenodd;clip-rule:evenodd;stroke-linejoin:round;stroke-miterlimit:2;"><path d="M4474,522.471l-316.204,-0.667l-313.108,-12.304l-313.108,14.621l-307.408,-41.992l-307.412,6.521l-307.429,62.308l-307.429,-52.983l-307.629,12.842l-307.638,-18.796l-307.654,42.988l-307.654,-46.083l-347.613,19.463l-347.625,-14.908l-348.9,26.763l-27.187,-240l32.846,-232.683l291.767,-24.7l264.908,30.904l327.383,-43.783l296.138,15.738l296.146,47.737l296.162,-32.162l296.167,12.171l296.154,-19.667l296.171,-18.583l296.167,70.592l296.154,-44.217l296.167,-9.892l296.179,-31.696l296.188,11.054l270.338,63.213l63.804,205.729l-34.837,242.475Z" style="fill:#1f1f1f;fill-rule:nonzero;"/></svg>