<?xml version="1.0" encoding="UTF-8" standalone="no"?><!DOCTYPE svg PUBLIC "-//W3C//DTD SVG 1.1//EN" "http://www.w3.org/Graphics/SVG/1.1/DTD/svg11.dtd"><svg width="100%" height="100%" viewBox="0 0 6001 4065" version="1.1" xmlns="http://www.w3.org/2000/svg" xmlns:xlink="http://www.w3.org/1999/xlink" xml:space="preserve" xmlns:serif="http://www.serif.com/" style="fill-rule:evenodd;clip-rule:evenodd;stroke-linejoin:round;stroke-miterlimit:2;"><g><rect x="0" y="314.105" width="6000" height="3750" style="fill:#4fc983;"/><path d="M4499.917,116.117l-300.008,-86.537l-300.008,21.892l-300,-19.283l-300.004,44.787l-300,-35.546l-299.987,-14.983l-299.975,66.162l-299.975,-39.771l-299.996,45.217l-299.996,-26.508l-300,-47.513l-299.996,-17.037l-299.992,100.742l-299.992,-55.908l-299.988,-19.654l0,416.283l300.029,-56.208l300.033,67.696l300.017,-27.55l300.008,-0.442l299.996,40.621l300.004,-20.983l300.008,-44.075l299.996,46.175l300.008,-15.425l300.004,-0.546l299.983,-42.654l299.979,54.012l299.975,-34.192l299.996,64.179l299.996,3.692l300,-7.6l299.992,-0.058l299.992,-94.292l299.992,51.871l299.992,-0.646l0,-388.008l-300.029,65.875l-300.033,-58.533l-300.017,33.983l-300.012,-85.35l-299.992,116.117Z" style="fill:#4fc983;fill-rule:nonzero;"/></g></svg>