<?xml version="1.0" encoding="UTF-8" standalone="no"?><!DOCTYPE svg PUBLIC "-//W3C//DTD SVG 1.1//EN" "http://www.w3.org/Graphics/SVG/1.1/DTD/svg11.dtd"><svg width="100%" height="100%" viewBox="0 0 6002 4751" version="1.1" xmlns="http://www.w3.org/2000/svg" xmlns:xlink="http://www.w3.org/1999/xlink" xml:space="preserve" xmlns:serif="http://www.serif.com/" style="fill-rule:evenodd;clip-rule:evenodd;stroke-linejoin:round;stroke-miterlimit:2;"><rect x="0" y="324.333" width="6000" height="4426.562" style="fill:#f6f6f6;"/><path d="M4466.584,116.117l-300.008,-86.533l-300.008,21.887l-299.996,-19.283l-300.004,44.787l-300.004,-35.542l-299.988,-14.988l-299.975,66.163l-299.975,-39.775l-299.996,45.217l-299.996,-26.504l-300,-47.517l-299.992,-17.037l-299.996,100.742l-299.992,-55.904l-266.654,-17.467l0,407.854l266.696,-49.967l300.033,67.692l300.017,-27.55l300.008,-0.438l299.996,40.621l300.004,-20.983l300.008,-44.079l300,46.175l300.004,-15.421l300.004,-0.55l299.983,-42.65l299.979,54.013l299.975,-34.196l299.996,64.183l299.996,3.688l300,-7.592l299.992,-0.067l299.992,-94.287l299.996,51.871l334.517,-6.904l-1.479,-398.758l-333.079,82.879l-300.033,-58.525l-300.017,33.975l-300.012,-85.346l-299.992,116.117Z" style="fill:#f6f6f6;fill-rule:nonzero;"/></svg>